#!OML:ASF H:\Pregnant\Project 1\Capture day 1\Session 1\femalepreg.ASF
:FULLY-SPECIFIED
:DEGREES
449
root -3.74771 15.3528 40.8616 -161.195 -2.50911 181.663
lowerback -20.7141 0.336522 -0.00776952
upperback -4.92334 -0.623838 2.13932
thorax 6.25097 -0.698216 2.10624
lowerneck -17.9999 7.91112 8.40378
upperneck 26.6339 9.97886 -7.26311
head 12.6737 3.98865 -2.60532
rclavicle -8.42971e-015 3.4191e-014
rhumerus -46.2083 -9.33 -65.3195
rradius 23.6089
rwrist -5.4591
rhand -21.264 -22.4627
rfingers 7.12502
rthumb 5.11948 -52.3808
lclavicle -8.42971e-015 3.4191e-014
lhumerus -35.1494 -16.2865 88.1644
lradius 37.0875
lwrist 37.7949
lhand -29.3449 -5.9023
lfingers 7.12502
lthumb -2.68479 24.0605
rfemur -32.3016 18.4368 20.167
rtibia 33.3008
rfoot -16.1684 -13.2375
rtoes -8.12085
lfemur -25.5032 -13.1303 -14.2141
ltibia 20.3737
lfoot -13.4139 4.66343
ltoes -14.5341
450
root -3.7605 15.3581 40.8757 -161.11 -2.30726 181.698
lowerback -20.8689 0.377102 -0.139481
upperback -4.98104 -0.565072 2.17026
thorax 6.26786 -0.679385 2.22947
lowerneck -17.9752 7.82085 8.29939
upperneck 26.6456 9.8691 -7.23612
head 12.6544 3.93088 -2.59907
rclavicle -3.42282e-015 -7.95139e-015
rhumerus -45.6446 -9.28462 -65.676
rradius 23.6924
rwrist -5.24616
rhand -21.2739 -22.1994
rfingers 7.12502
rthumb 5.10989 -52.1178
lclavicle -3.42282e-015 -7.95139e-015
lhumerus -34.9263 -16.1225 88.0453
lradius 37.5752
lwrist 38.0388
lhand -29.5994 -6.1117
lfingers 7.12502
lthumb -2.93063 23.8479
rfemur -32.4405 18.4729 20.0667
rtibia 33.1947
rfoot -16.153 -13.0554
rtoes -7.93523
lfemur -25.5033 -13.1507 -14.1979
ltibia 20.19
lfoot -13.3958 4.84395
ltoes -14.2898
451
root -3.77235 15.3629 40.8887 -161.03 -2.10631 181.725
lowerback -21.0299 0.402994 -0.29756
upperback -5.02903 -0.519361 2.21136
thorax 6.2987 -0.666838 2.37576
lowerneck -17.9789 7.74136 8.19113
upperneck 26.6661 9.77608 -7.21056
head 12.6461 3.87921 -2.58896
rclavicle -2.95071e-015 8.74653e-015
rhumerus -45.0359 -9.18755 -66.0646
rradius 23.7794
rwrist -4.99066
rhand -21.2956 -21.9453
rfingers 7.12502
rthumb 5.08891 -51.8642
lclavicle -2.95071e-015 8.74653e-015
lhumerus -34.706 -15.9204 87.9407
lradius 38.0371
lwrist 38.3156
lhand -29.8407 -6.32305
lfingers 7.12502
lthumb -3.16359 23.6332
rfemur -32.5795 18.5281 19.96
rtibia 33.1056
rfoot -16.1354 -12.9019
rtoes -7.77874
lfemur -25.5033 -13.1946 -14.1846
ltibia 20.0183
lfoot -13.3668 5.04484
ltoes -14.0893
452
root -3.78345 15.3672 40.9008 -160.959 -1.90597 181.744
lowerback -21.1845 0.42416 -0.464731
upperback -5.07729 -0.476665 2.24741
thorax 6.32542 -0.655675 2.52132
lowerneck -17.9856 7.66685 8.09535
upperneck 26.6964 9.68396 -7.17701
head 12.6428 3.82994 -2.57767
rclavicle 3.78933e-015 -5.56597e-015
rhumerus -44.4091 -9.08112 -66.4731
rradius 23.8562
rwrist -4.67446
rhand -21.3315 -21.7035
rfingers 7.12502
rthumb 5.0543 -51.6232
lclavicle 3.78933e-015 -5.56597e-015
lhumerus -34.509 -15.722 87.8468
lradius 38.4704
lwrist 38.6387
lhand -30.0804 -6.52292
lfingers 7.12502
lthumb -3.39506 23.4298
rfemur -32.7067 18.6054 19.8489
rtibia 33.0254
rfoot -16.1123 -12.779
rtoes -7.63092
lfemur -25.506 -13.2363 -14.1803
ltibia 19.8687
lfoot -13.327 5.23662
ltoes -13.8716
453
root -3.79415 15.371 40.912 -160.897 -1.70753 181.759
lowerback -21.3317 0.440745 -0.633826
upperback -5.12805 -0.438887 2.27985
thorax 6.34523 -0.646888 2.66304
lowerneck -17.9897 7.60028 8.01286
upperneck 26.7348 9.59714 -7.13623
head 12.6433 3.78507 -2.56499
rclavicle -1.46604e-015 1.27222e-014
rhumerus -43.7795 -8.92801 -66.9195
rradius 23.9563
rwrist -4.3505
rhand -21.4013 -21.5055
rfingers 7.12502
rthumb 4.98687 -51.4268
lclavicle -1.46604e-015 1.27222e-014
lhumerus -34.3366 -15.5231 87.7653
lradius 38.8687
lwrist 39.0004
lhand -30.3099 -6.73121
lfingers 7.12502
lthumb -3.6167 23.2179
rfemur -32.8222 18.7 19.7326
rtibia 32.9493
rfoot -16.0906 -12.6701
rtoes -7.4452
lfemur -25.5152 -13.265 -14.1861
ltibia 19.7453
lfoot -13.2768 5.40745
ltoes -13.6645
454
root -3.80464 15.3746 40.9231 -160.838 -1.51374 181.77
lowerback -21.4786 0.455284 -0.797981
upperback -5.18113 -0.404185 2.30501
thorax 6.36208 -0.63958 2.79346
lowerneck -17.9821 7.53978 7.95324
upperneck 26.7779 9.51211 -7.09552
head 12.6451 3.74331 -2.55615
rclavicle -3.62782e-015 6.2816e-014
rhumerus -43.1621 -8.71773 -67.413
rradius 24.102
rwrist -4.05662
rhand -21.4971 -21.3774
rfingers 7.12502
rthumb 4.89442 -51.3009
lclavicle -3.62782e-015 6.2816e-014
lhumerus -34.192 -15.3424 87.6935
lradius 39.2431
lwrist 39.4015
lhand -30.5331 -6.89945
lfingers 7.12502
lthumb -3.83228 23.0458
rfemur -32.9307 18.8068 19.6102
rtibia 32.8741
rfoot -16.069 -12.5795
rtoes -7.24114
lfemur -25.5372 -13.2683 -14.2023
ltibia 19.645
lfoot -13.2158 5.54288
ltoes -13.4344
